HIERARCHY
ROOT Hips
{
	OFFSET 0.000000 0.000000 0.000000
	CHANNELS 6 Xposition Yposition Zposition Zrotation Yrotation Xrotation 
	JOINT LHipJoint
	{
		OFFSET 0.000000 0.000000 0.000000
		CHANNELS 3 Zrotation Yrotation Xrotation
		JOINT LeftUpLeg
		{
			OFFSET 8.178360 -10.767780 5.035740
			CHANNELS 3 Zrotation Yrotation Xrotation
			JOINT LeftLeg
			{
				OFFSET 14.688660 -40.356780 0.000000
				CHANNELS 3 Zrotation Yrotation Xrotation
				JOINT LeftFoot
				{
					OFFSET 15.373200 -42.237540 0.000000
					CHANNELS 3 Zrotation Yrotation Xrotation
					JOINT LeftToeBase
					{
						OFFSET 0.945840 -2.598660 13.935300
						CHANNELS 3 Zrotation Yrotation Xrotation
						End Site
						{
							OFFSET 0.000000 0.000000 0.000000
						}
					}
				}
			}
		}
	}
	JOINT RHipJoint
	{
		OFFSET 0.000000 0.000000 0.000000
		CHANNELS 3 Zrotation Yrotation Xrotation
		JOINT RightUpLeg
		{
			OFFSET -7.833120 -10.767780 5.035740
			CHANNELS 3 Zrotation Yrotation Xrotation
			JOINT RightLeg
			{
				OFFSET -15.255180 -41.913300 0.000000
				CHANNELS 3 Zrotation Yrotation Xrotation
				JOINT RightFoot
				{
					OFFSET -15.409560 -42.337380 0.000000
					CHANNELS 3 Zrotation Yrotation Xrotation
					JOINT RightToeBase
					{
						OFFSET -0.988380 -2.715540 14.178900
						CHANNELS 3 Zrotation Yrotation Xrotation
						End Site
						{
							OFFSET 0.000000 0.000000 0.000000
						}
					}
				}
			}
		}
	}
	JOINT LowerBack
	{
		OFFSET 0.000000 0.000000 0.000000
		CHANNELS 3 Zrotation Yrotation Xrotation
		JOINT Spine
		{
			OFFSET 0.169620 12.213540 -1.160280
			CHANNELS 3 Zrotation Yrotation Xrotation
			JOINT Spine1
			{
				OFFSET 0.340320 12.293100 -0.256500
				CHANNELS 3 Zrotation Yrotation Xrotation
				JOINT Neck
				{
					OFFSET 0.000000 0.000000 0.000000
					CHANNELS 3 Zrotation Yrotation Xrotation
					JOINT Neck1
					{
						OFFSET -0.325020 10.477440 1.032120
						CHANNELS 3 Zrotation Yrotation Xrotation
						JOINT Head
						{
							OFFSET 0.624420 10.568160 -0.743820
							CHANNELS 3 Zrotation Yrotation Xrotation
							End Site
							{
								OFFSET 0.000000 0.000000 0.000000
							}
						}
					}
				}
				JOINT LeftShoulder
				{
					OFFSET 0.000000 0.000000 0.000000
					CHANNELS 3 Zrotation Yrotation Xrotation
					JOINT LeftArm
					{
						OFFSET 20.174460 7.205340 -1.867260
						CHANNELS 3 Zrotation Yrotation Xrotation
						JOINT LeftForeArm
						{
							OFFSET 29.898000 -0.000000 -0.000000
							CHANNELS 3 Zrotation Yrotation Xrotation
							JOINT LeftHand
							{
								OFFSET 20.901360 -0.000000 -0.000000
								CHANNELS 3 Zrotation Yrotation Xrotation
								JOINT LeftFingerBase
								{
									OFFSET 0.000000 0.000000 0.000000
									CHANNELS 3 Zrotation Yrotation Xrotation
									JOINT LeftHandIndex1
									{
										OFFSET 4.291560 -0.000000 -0.000000
										CHANNELS 3 Zrotation Yrotation Xrotation
										End Site
										{
											OFFSET 0.000000 0.000000 0.000000
										}
									}
								}
								JOINT LThumb
								{
									OFFSET 0.000000 0.000000 0.000000
									CHANNELS 3 Zrotation Yrotation Xrotation
									End Site
									{
										OFFSET 0.000000 0.000000 0.000000
									}
								}
							}
						}
					}
				}
				JOINT RightShoulder
				{
					OFFSET 0.000000 0.000000 0.000000
					CHANNELS 3 Zrotation Yrotation Xrotation
					JOINT RightArm
					{
						OFFSET -18.819600 8.244300 -2.427900
						CHANNELS 3 Zrotation Yrotation Xrotation
						JOINT RightForeArm
						{
							OFFSET -31.451400 -0.000000 -0.000000
							CHANNELS 3 Zrotation Yrotation Xrotation
							JOINT RightHand
							{
								OFFSET -20.665020 -0.000000 -0.000000
								CHANNELS 3 Zrotation Yrotation Xrotation
								JOINT RightFingerBase
								{
									OFFSET 0.000000 0.000000 0.000000
									CHANNELS 3 Zrotation Yrotation Xrotation
									JOINT RightHandIndex1
									{
										OFFSET -3.735180 -0.000000 -0.000000
										CHANNELS 3 Zrotation Yrotation Xrotation
										End Site
										{
											OFFSET 0.000000 0.000000 0.000000
										}
									}
								}
								JOINT RThumb
								{
									OFFSET 0.000000 0.000000 0.000000
									CHANNELS 3 Zrotation Yrotation Xrotation
									End Site
									{
										OFFSET 0.000000 0.000000 0.000000
									}
								}
							}
						}
					}
				}
			}
		}
	}
}
MOTION
Frames:	4
Frame Time:	0.0333333
79.814310 104.386980 -188.210022 3.260232 -4.564207 3.738431 -0.171005 0.095096 0.530169 -6.733540 -2.581961 -28.271000 18.276065 20.426429 83.450865 0.393116 2.311104 20.445854 0.037400 1.248000 3.431400 0.868394 -0.725734 1.515097 29.243095 5.109518 -15.808835 -4.439375 -13.409928 42.088333 5.059420 -17.152745 -10.356638 -0.030300 -1.123900 3.089900 0.386529 0.059932 11.895016 1.423807 0.168027 -2.358301 3.740549 0.277741 -4.077864 -6.220773 -1.399115 -9.519589 1.976726 -1.091539 4.136590 1.692700 -0.769100 5.051400 -2.114127 2.436067 -3.106983 -87.748052 17.184166 40.588974 66.748922 -58.559724 -50.921687 -0.617078 -2.783839 -23.140761 20.857465 5.324867 3.184500 -7.125000 0.000000 0.000000 -3.674900 38.283400 0.608800 0.439585 -1.837658 -1.477326 81.302581 -13.750999 32.553936 -102.628799 61.602462 -78.973110 1.670718 -1.265666 6.453349 -13.430179 24.934745 -6.758800 7.125000 0.000000 0.000000 8.792100 -3.596400 8.323500 
78.018132 104.731932 -173.986590 2.458345 -4.195684 4.476640 0.183858 -0.388802 -0.433291 -5.484375 -2.960388 -36.470742 16.175577 20.757701 76.957896 -0.484374 4.100897 13.452132 0.107400 -2.113000 -5.818100 1.055467 -1.093730 2.536024 30.889857 1.642493 -7.543177 -3.610717 -11.984364 38.079274 5.597081 -18.266456 -8.468926 -0.065800 1.654800 -4.552700 1.657998 1.062368 11.097462 1.280215 1.542947 -2.510460 2.628058 1.095677 -4.481762 -6.321008 -2.556991 -8.633448 2.336495 -2.636056 3.939379 1.925100 -1.489300 4.876400 -1.855308 2.681500 -3.076299 -85.281401 22.943354 42.684591 76.282305 -61.664196 -59.494614 -0.543677 -2.449474 -24.992920 18.914509 3.367105 2.013800 -7.125000 0.000000 0.000000 -5.205600 35.707200 1.192800 -0.075374 -1.736054 -1.271759 82.263242 -11.751492 34.440608 -118.851373 58.455841 -89.914871 1.529739 -1.180209 -2.029572 -15.578352 24.562190 -7.564500 7.125000 0.000000 0.000000 7.662900 -3.510300 7.245500 
76.520358 106.033956 -158.371872 1.745072 -6.847036 5.634124 0.137132 -0.671472 -1.281132 -5.980877 -0.256386 -40.283193 11.381634 19.594209 62.733024 -1.596204 7.626302 10.431449 0.320300 -3.637700 -10.059500 1.446414 -1.676577 3.622257 29.534082 -0.410578 1.905712 -2.334791 -9.826381 31.002991 5.268028 -17.306316 3.318042 -0.262800 3.298200 -9.110000 3.440137 3.198575 7.760462 0.841520 4.299498 -2.506074 0.397541 2.616300 -3.027215 -6.499116 -4.030042 -8.379960 2.986421 -4.555541 5.289014 2.380500 -2.423500 5.579700 -1.682699 3.217093 -3.053850 -81.556635 28.128642 44.188665 88.489150 -64.707488 -68.852040 -0.286138 -2.107723 -26.459082 16.299832 4.375588 1.939400 -7.125000 0.000000 0.000000 -7.755700 36.343700 1.663100 -0.688005 -1.870863 -1.152209 83.104843 -11.736851 37.070411 -130.697846 53.722122 -97.904597 1.502012 -1.325555 -5.050657 -17.576848 23.886819 -8.321200 7.125000 0.000000 0.000000 6.472300 -3.658100 6.085700 
74.784750 106.732794 -142.923570 1.840959 -6.998788 7.203638 -0.620967 -1.273451 -2.147330 -4.609393 -2.609409 -40.107601 4.865264 15.907852 42.933257 -0.923652 8.116015 18.148389 0.191800 -2.820600 -7.779700 2.080383 -2.139703 4.774384 26.633819 -1.205300 8.760870 -1.243707 -7.868321 24.523548 3.025396 -15.090853 19.871166 -0.156300 -2.547400 7.021000 3.907892 4.293284 5.013292 0.421667 5.573900 -2.882176 -1.057790 3.417603 -3.262320 -6.788833 -5.139353 -7.709362 3.760852 -6.044002 6.629466 2.867800 -3.162300 6.403500 -1.602247 3.512523 -3.306217 -78.287024 33.526867 44.178271 100.351195 -65.771370 -76.469482 -0.099271 -1.935374 -26.268054 14.377073 7.046911 2.388600 -7.125000 0.000000 0.000000 -9.995100 38.862300 1.529300 -1.210073 -1.738275 -1.085934 82.767611 -12.664243 40.235704 -137.349782 49.916217 -102.308510 1.297485 -1.729232 -1.871103 -16.919513 25.724758 -8.578300 7.125000 0.000000 0.000000 7.155000 -1.572600 7.011300 
